HIERARCHY
ROOT hip
{
	OFFSET 0.000000 0.000000 0.000000 
	CHANNELS 6 Xposition Yposition Zposition Xrotation Zrotation Yrotation
	JOINT abdomen
	{
		OFFSET 0.000000 3.402643 0.000000 
		CHANNELS 3 Xrotation Zrotation Yrotation
		JOINT chest
		{
			OFFSET 0.000000 8.438565 -0.680529 
			CHANNELS 3 Xrotation Zrotation Yrotation
			JOINT neck
			{
				OFFSET 0.000000 10.207942 -0.272212 
				CHANNELS 3 Xrotation Zrotation Yrotation
				JOINT head
				{
					OFFSET 0.000000 3.130431 0.000000 
					CHANNELS 3 Xrotation Zrotation Yrotation
					End Site
					{
						OFFSET 0.000000 3.130435 0.000000 
					}
				}
			}
			JOINT lCollar
			{
				OFFSET 3.470700 6.669187 -0.816635 
				CHANNELS 3 Yrotation Zrotation Xrotation
				JOINT lShldr
				{
					OFFSET 3.198488 0.000000 0.000000 
					CHANNELS 3 Zrotation Yrotation Xrotation
					JOINT lForeArm
					{
						OFFSET 10.139888 0.000000 0.000000 
						CHANNELS 3 Yrotation Zrotation Xrotation
						JOINT lHand
						{
							OFFSET 8.370511 0.000000 0.000000 
							CHANNELS 3 Zrotation Yrotation Xrotation
							End Site
							{
								OFFSET 4.083176 0.000000 0.000000 
							}
						}
					}
				}
			}
			JOINT rCollar
			{
				OFFSET -3.470700 6.669187 -0.816635 
				CHANNELS 3 Yrotation Zrotation Xrotation
				JOINT rShldr
				{
					OFFSET -3.198488 0.000000 0.000000 
					CHANNELS 3 Zrotation Yrotation Xrotation
					JOINT rForeArm
					{
						OFFSET -10.139888 0.000000 0.000000 
						CHANNELS 3 Yrotation Zrotation Xrotation
						JOINT rHand
						{
							OFFSET -8.370511 0.000000 0.000000 
							CHANNELS 3 Zrotation Yrotation Xrotation
							End Site
							{
								OFFSET -4.083176 0.000000 0.000000 
							}
						}
					}
				}
			}
		}
	}
	JOINT lThigh
	{
		OFFSET 5.308129 -1.633274 1.361059 
		CHANNELS 3 Xrotation Zrotation Yrotation
		JOINT lShin
		{
			OFFSET -2.041588 -20.007561 0.000000 
			CHANNELS 3 Xrotation Zrotation Yrotation
			JOINT lFoot
			{
				OFFSET 0.000000 -19.190928 -1.224953 
				CHANNELS 3 Xrotation Yrotation Zrotation
				End Site
				{
					OFFSET 0.000000 -2.449906 4.627600 
				}
			}
		}
	}
	JOINT rThigh
	{
		OFFSET -5.308129 -1.633274 1.361059 
		CHANNELS 3 Xrotation Zrotation Yrotation
		JOINT rShin
		{
			OFFSET 2.041588 -20.007561 0.000000 
			CHANNELS 3 Xrotation Zrotation Yrotation
			JOINT rFoot
			{
				OFFSET 0.000000 -19.190928 -1.224953 
				CHANNELS 3 Xrotation Yrotation Zrotation
				End Site
				{
					OFFSET 0.000000 -2.449906 4.627600 
				}
			}
		}
	}
}
MOTION
Frames: 15
Frame Time: 0.016667
-0.036937 44.582020 -0.026019 1.735590 -5.173420 5.302190 -21.367599 3.402950 -1.382750 14.503800 5.448160 -0.439345 17.056633 -14.511367 -11.048506 15.402400 11.260800 -1.876140 2.000000 -2.000000 0.000000 84.907997 165.431000 -4.624240 34.726898 -0.327213 0.077941 0.062550 -0.050485 -155.261993 -2.000000 2.000000 0.000000 60.650799 4.275670 146.005005 -30.654600 0.332460 0.069709 -0.062323 -0.040043 -118.835999 -4.975825 2.217710 -1.109450 17.510868 3.636956 1.189502 -11.045305 -4.760728 -1.258521 -1.150916 8.573213 -3.652168 9.255707 -2.203334 -0.938011 -7.540749 -9.886458 -2.467795 
-0.039248 44.583054 -0.070387 1.705940 -5.085650 4.828930 -21.317699 3.371660 -1.020810 14.477300 5.156540 -0.264774 17.023067 -14.709098 -11.146483 15.528000 11.169400 -1.897840 2.000000 -2.000000 0.000000 85.191200 165.518005 -4.350600 33.965199 -0.328238 0.076441 0.063048 -0.051962 -155.817993 -2.000000 2.000000 0.000000 63.631401 5.259090 147.462006 -29.463200 0.333883 0.067249 -0.063876 -0.044570 -117.126999 -4.889940 2.110824 -0.959213 17.517330 3.608788 1.204706 -11.012548 -4.281102 -1.149412 -1.190886 8.471499 -3.556035 9.373407 -2.214619 -0.936470 -7.465089 -9.538465 -2.364605 
-0.048326 44.570202 -0.100728 1.637380 -5.115110 4.248220 -21.271200 3.524670 -0.669057 14.556500 5.069880 -0.063060 16.936100 -14.795675 -11.182942 15.566200 11.129500 -1.929130 2.000000 -2.000000 0.000000 85.220703 165.684998 -4.545530 33.701500 -0.328588 0.075918 0.062218 -0.049471 -154.880997 -2.000000 2.000000 0.000000 66.094902 6.388090 149.339996 -28.818701 0.334632 0.065905 -0.065856 -0.049785 -115.135002 -4.731463 2.113702 -0.664048 17.543562 3.625125 1.197215 -10.914217 -3.538720 -0.985051 -1.166966 8.484960 -3.181872 9.416646 -2.204679 -0.954754 -7.427768 -9.280125 -2.295961 
-0.057406 44.557354 -0.131070 1.558990 -5.134830 3.678480 -21.214199 3.677910 -0.316127 14.635700 4.983170 0.138419 16.850334 -14.891462 -11.231381 15.594400 11.090000 -1.970210 2.000000 -2.000000 0.000000 85.250099 165.850998 -4.730690 33.428101 -0.328949 0.075374 0.061437 -0.056759 -153.953003 -2.000000 2.000000 0.000000 68.597504 7.448530 151.276001 -28.174101 0.335366 0.064554 -0.068005 -0.054903 -113.152000 -4.595368 2.109807 -0.357870 17.641151 3.637731 1.208031 -10.862362 -2.828075 -0.806800 -1.292479 8.522647 -2.827452 9.785998 -2.297678 -0.954081 -7.525358 -9.054813 -2.158616 
-0.026078 44.556576 -0.169102 1.538870 -4.920110 3.129350 -21.165100 3.753370 -0.059380 14.714700 4.925580 0.268332 16.642557 -15.039149 -11.183018 15.660000 10.991500 -1.976380 2.000000 -2.000000 0.000000 85.133102 166.037003 -4.993940 33.183899 -0.329269 0.074888 0.061097 -0.055634 -153.533005 -2.000000 2.000000 0.000000 70.641502 8.820520 153.623001 -28.174101 0.335366 0.064554 -0.068980 -0.057074 -112.303001 -4.395679 1.786772 -0.053100 17.330872 3.639243 1.190644 -10.698050 -2.222904 -0.678447 -1.438206 8.223431 -2.600626 10.159462 -2.332801 -0.969190 -7.600602 -8.581303 -2.065918 
0.005252 44.555809 -0.207137 1.508990 -4.705410 2.580880 -21.105801 3.829040 0.197893 14.793500 4.877690 0.406878 16.432985 -15.186837 -11.140934 15.725900 10.902600 -1.980840 2.000000 -2.000000 0.000000 85.016098 166.214005 -5.257200 32.939800 -0.329587 0.074399 0.060772 -0.054532 -153.123001 -2.000000 2.000000 0.000000 72.753799 10.114200 156.018005 -28.183901 0.335355 0.064574 -0.069987 -0.059229 -111.453003 -4.227415 1.457253 0.272111 17.016968 3.608818 1.169296 -10.536830 -1.619650 -0.542230 -1.604498 7.935547 -2.375165 10.570091 -2.381571 -0.994722 -7.693390 -8.105798 -1.961300 
0.025652 44.544880 -0.245983 1.469700 -4.656680 2.263070 -21.126101 3.963310 0.416964 14.735100 4.828600 0.533783 16.141909 -15.299371 -11.102196 15.760400 10.776700 -2.020170 2.000000 -2.000000 0.000000 84.879501 166.399002 -5.247000 32.598000 -0.330028 0.073714 0.061136 -0.055765 -153.582001 -2.000000 2.000000 0.000000 74.328201 11.487600 157.654007 -28.369400 0.335145 0.064964 -0.071404 -0.062128 -110.301003 -4.162794 1.357448 0.441854 17.019485 3.598560 1.177531 -10.546229 -1.254853 -0.472381 -1.738732 7.865328 -2.007445 10.872626 -2.417324 -1.001953 -7.671431 -8.047568 -1.900956 
0.046052 44.534084 -0.284832 1.430390 -4.598180 1.955200 -21.136299 4.097780 0.636581 14.686500 4.779610 0.661602 15.844967 -15.432781 -11.075747 15.784700 10.641700 -2.051820 2.000000 -2.000000 0.000000 84.752602 166.585007 -5.227040 32.246399 -0.330478 0.073006 0.061501 -0.056968 -154.031006 -2.000000 2.000000 0.000000 75.951500 12.811900 159.337006 -28.555000 0.334934 0.065353 -0.072879 -0.064998 -109.148003 -4.068567 1.277675 0.630050 16.972395 3.584875 1.175951 -10.554541 -0.894138 -0.372003 -1.859133 7.787963 -1.656746 11.127378 -2.446451 -1.029115 -7.602569 -7.948064 -1.839187 
0.061197 44.538589 -0.330906 1.450120 -4.666480 1.912850 -21.263100 4.188530 0.823227 14.521300 4.622780 0.771565 15.738498 -15.372191 -11.171462 15.742600 10.585900 -2.129320 2.000000 -2.000000 0.000000 84.908699 166.524994 -4.817020 32.265999 -0.330453 0.073045 0.061769 -0.048064 -154.352997 -2.000000 2.000000 0.000000 77.017700 13.883100 160.716003 -28.886999 0.334554 0.066048 -0.073534 -0.066230 -108.650002 -4.203237 1.314926 0.599920 17.124699 3.573827 1.183391 -10.608293 -0.704454 -0.333892 -1.837738 7.825909 -1.486448 10.917024 -2.402720 -1.029117 -7.437965 -7.894507 -1.833802 
0.076340 44.543083 -0.376979 1.479660 -4.734760 1.869640 -21.399700 4.288080 1.005670 14.356000 4.475720 0.872379 15.618323 -15.305660 -11.270660 15.700200 10.520500 -2.210480 2.000000 -2.000000 0.000000 85.055099 166.455994 -4.407030 32.275700 -0.330441 0.073065 0.062034 -0.048899 -154.666000 -2.000000 2.000000 0.000000 78.122902 14.915000 162.125000 -29.228800 0.334157 0.066761 -0.074186 -0.067431 -108.162003 -4.297241 1.357124 0.547774 17.185270 3.574237 1.202422 -10.609245 -0.529201 -0.291432 -1.881389 7.868608 -1.343581 10.804255 -2.369792 -1.028767 -7.340591 -7.856459 -1.840995 
0.103110 44.550285 -0.399130 1.489440 -4.724970 1.966740 -21.408300 4.352990 1.178820 14.376700 4.339960 0.976449 15.604725 -15.280757 -11.556182 15.768100 10.479500 -2.332760 2.000000 -2.000000 0.000000 85.143097 166.649994 -4.094070 32.285500 -0.330428 0.073085 0.062000 -0.048794 -154.626999 -2.000000 2.000000 0.000000 78.437103 15.819900 163.602005 -29.746401 0.333550 0.067836 -0.074556 -0.068102 -107.889000 -4.331857 1.295913 0.489672 17.136442 3.567086 1.192050 -10.533645 -0.470853 -0.294935 -1.894995 7.804754 -1.349257 10.809267 -2.387053 -1.000512 -7.396483 -7.816183 -1.837960 
0.129882 44.557476 -0.421283 1.509010 -4.715170 2.072810 -21.416599 4.417900 1.351980 14.407300 4.194560 1.072420 15.595160 -15.234835 -11.841050 15.835600 10.429000 -2.466870 2.000000 -2.000000 0.000000 85.221199 166.835007 -3.790910 32.285500 -0.330428 0.073085 0.061967 -0.048690 -154.587997 -2.000000 2.000000 0.000000 78.780502 16.724701 165.080994 -30.273800 0.332920 0.068926 -0.074930 -0.068770 -107.614998 -4.400560 1.226714 0.403994 17.091600 3.546264 1.209485 -10.448927 -0.398255 -0.280706 -1.899019 7.753787 -1.361408 10.768818 -2.387319 -0.991527 -7.461681 -7.759844 -1.849733 
0.143897 44.564674 -0.417475 1.440400 -4.705550 2.557190 -21.522800 4.373390 1.373340 14.290900 4.048020 1.079780 15.826295 -15.023668 -12.149887 15.818500 10.496700 -2.564100 2.000000 -2.000000 0.000000 85.377502 166.854004 -3.683440 32.500301 -0.330154 0.073517 0.061967 -0.048690 -154.587997 -2.000000 2.000000 0.000000 78.635101 17.092600 166.479004 -31.181999 0.331813 0.070789 -0.075401 -0.069603 -107.273003 -4.363641 1.221405 0.264547 17.065996 3.566167 1.173048 -10.459725 -0.711452 -0.379485 -1.758213 7.746705 -1.518420 10.626129 -2.399506 -0.995184 -7.445857 -8.018456 -1.912800 
0.157911 44.571743 -0.413665 1.381590 -4.695910 3.030980 -21.618999 4.320090 1.398280 14.184400 3.901600 1.098170 16.068081 -14.809216 -12.451641 15.811700 10.573600 -2.655840 2.000000 -2.000000 0.000000 85.523903 166.863998 -3.576000 32.715199 -0.329877 0.073949 0.061959 -0.048664 -154.578003 -2.000000 2.000000 0.000000 78.499496 17.470200 167.865997 -32.090199 0.330676 0.072634 -0.075863 -0.070410 -106.941002 -4.330151 1.210131 0.105431 16.985468 3.571754 1.184274 -10.392292 -1.032605 -0.459641 -1.657691 7.758653 -1.678607 10.575560 -2.442577 -0.979422 -7.479566 -8.285970 -1.930255 
0.160012 44.584717 -0.448580 1.420930 -4.764170 3.768280 -21.670000 4.291350 1.237650 14.194200 3.901680 1.020710 16.354040 -14.641612 -12.721797 15.865700 10.676700 -2.722890 2.000000 -2.000000 0.000000 85.524002 167.001007 -3.536620 33.174198 -0.329282 0.074868 0.061975 -0.048716 -154.598007 -2.000000 2.000000 0.000000 77.875702 18.111601 169.205994 -32.549198 0.330091 0.073560 -0.075306 -0.069437 -107.342003 -4.545949 1.327519 -0.064745 17.026018 3.562524 1.153386 -10.341722 -1.585703 -0.576543 -1.612978 7.850167 -1.902794 10.216241 -2.389322 -0.962521 -7.249194 -8.830211 -2.064215 
